<mxfile host="app.diagrams.net" modified="2022-03-25T14:03:02.843Z" agent="5.0 (Macintosh; Intel Mac OS X 10_14_0) AppleWebKit/537.36 (KHTML, like Gecko) Chrome/99.0.4844.83 Safari/537.36" etag="e6zUtlV32Npijf6yU_bj" version="17.1.3" type="github">
  <diagram id="yXCAye2BfIB6WYAkFXII" name="Page-1">
    <mxGraphModel dx="1106" dy="584" grid="1" gridSize="10" guides="1" tooltips="1" connect="1" arrows="1" fold="1" page="1" pageScale="1" pageWidth="827" pageHeight="1169" math="0" shadow="0">
      <root>
        <mxCell id="0" />
        <mxCell id="1" parent="0" />
        <mxCell id="hH5GyY2D4rfaSlj6DP0R-1" value="服务器A" style="rounded=0;whiteSpace=wrap;html=1;" vertex="1" parent="1">
          <mxGeometry x="120" y="130" width="120" height="60" as="geometry" />
        </mxCell>
        <mxCell id="hH5GyY2D4rfaSlj6DP0R-4" value="客户端" style="rounded=0;whiteSpace=wrap;html=1;" vertex="1" parent="1">
          <mxGeometry x="120" y="340" width="120" height="60" as="geometry" />
        </mxCell>
        <mxCell id="hH5GyY2D4rfaSlj6DP0R-5" value="" style="endArrow=classic;html=1;rounded=0;entryX=0.25;entryY=1;entryDx=0;entryDy=0;exitX=0.25;exitY=0;exitDx=0;exitDy=0;" edge="1" parent="1" source="hH5GyY2D4rfaSlj6DP0R-4" target="hH5GyY2D4rfaSlj6DP0R-1">
          <mxGeometry width="50" height="50" relative="1" as="geometry">
            <mxPoint x="330" y="360" as="sourcePoint" />
            <mxPoint x="180" y="190" as="targetPoint" />
          </mxGeometry>
        </mxCell>
        <mxCell id="hH5GyY2D4rfaSlj6DP0R-6" value="1.完整握手" style="text;html=1;align=center;verticalAlign=middle;resizable=0;points=[];autosize=1;strokeColor=none;fillColor=none;" vertex="1" parent="1">
          <mxGeometry x="80" y="260" width="70" height="20" as="geometry" />
        </mxCell>
        <mxCell id="hH5GyY2D4rfaSlj6DP0R-7" value="" style="endArrow=classic;html=1;rounded=0;exitX=0.75;exitY=1;exitDx=0;exitDy=0;entryX=0.75;entryY=0;entryDx=0;entryDy=0;" edge="1" parent="1" source="hH5GyY2D4rfaSlj6DP0R-1" target="hH5GyY2D4rfaSlj6DP0R-4">
          <mxGeometry width="50" height="50" relative="1" as="geometry">
            <mxPoint x="300" y="420" as="sourcePoint" />
            <mxPoint x="350" y="370" as="targetPoint" />
          </mxGeometry>
        </mxCell>
        <mxCell id="hH5GyY2D4rfaSlj6DP0R-8" value="返回信息：&lt;br&gt;1、session ID&lt;br&gt;2、session ticket&lt;br&gt;3、session id和session ticket" style="text;html=1;align=left;verticalAlign=middle;resizable=0;points=[];autosize=1;strokeColor=none;fillColor=none;" vertex="1" parent="1">
          <mxGeometry x="220" y="230" width="170" height="60" as="geometry" />
        </mxCell>
        <mxCell id="hH5GyY2D4rfaSlj6DP0R-12" value="服务器B" style="rounded=0;whiteSpace=wrap;html=1;" vertex="1" parent="1">
          <mxGeometry x="560" y="130" width="120" height="60" as="geometry" />
        </mxCell>
        <mxCell id="hH5GyY2D4rfaSlj6DP0R-13" value="客户端" style="rounded=0;whiteSpace=wrap;html=1;" vertex="1" parent="1">
          <mxGeometry x="560" y="340" width="120" height="60" as="geometry" />
        </mxCell>
        <mxCell id="hH5GyY2D4rfaSlj6DP0R-14" value="" style="endArrow=classic;html=1;rounded=0;entryX=0.25;entryY=1;entryDx=0;entryDy=0;exitX=0.25;exitY=0;exitDx=0;exitDy=0;" edge="1" parent="1" source="hH5GyY2D4rfaSlj6DP0R-13" target="hH5GyY2D4rfaSlj6DP0R-12">
          <mxGeometry width="50" height="50" relative="1" as="geometry">
            <mxPoint x="770" y="360" as="sourcePoint" />
            <mxPoint x="620" y="190" as="targetPoint" />
          </mxGeometry>
        </mxCell>
        <mxCell id="hH5GyY2D4rfaSlj6DP0R-15" value="握手复用时，携带&lt;br&gt;1、session id&lt;br&gt;2、session ticket&lt;br&gt;3、session id和session ticket" style="text;html=1;align=left;verticalAlign=middle;resizable=0;points=[];autosize=1;strokeColor=none;fillColor=none;" vertex="1" parent="1">
          <mxGeometry x="430" y="220" width="170" height="60" as="geometry" />
        </mxCell>
        <mxCell id="hH5GyY2D4rfaSlj6DP0R-16" value="" style="endArrow=classic;html=1;rounded=0;exitX=0.75;exitY=1;exitDx=0;exitDy=0;entryX=0.75;entryY=0;entryDx=0;entryDy=0;" edge="1" parent="1" source="hH5GyY2D4rfaSlj6DP0R-12" target="hH5GyY2D4rfaSlj6DP0R-13">
          <mxGeometry width="50" height="50" relative="1" as="geometry">
            <mxPoint x="740" y="420" as="sourcePoint" />
            <mxPoint x="790" y="370" as="targetPoint" />
          </mxGeometry>
        </mxCell>
        <mxCell id="hH5GyY2D4rfaSlj6DP0R-17" value="动态选择复用方式" style="text;html=1;align=center;verticalAlign=middle;resizable=0;points=[];autosize=1;strokeColor=none;fillColor=none;" vertex="1" parent="1">
          <mxGeometry x="660" y="230" width="110" height="20" as="geometry" />
        </mxCell>
      </root>
    </mxGraphModel>
  </diagram>
</mxfile>
